<?xml version="1.0" encoding="UTF-8"?><svg id="Layer_1" xmlns="http://www.w3.org/2000/svg" viewBox="0 0 275.14 286.13"><defs><style>.cls-1{fill:#fff;}</style></defs><path d="M151.08,94.33c-10.84,8.21-16.87,6.96-27.02-.47C87.48,67.09,45.54,55.22,0,51.89V239.64c1.54,.76,2.33,1.42,3.19,1.54,46.08,6.49,90.08,18.9,129.83,44.19,2.68,1.71,8.45,.24,12-1.42,15.57-7.27,30.23-16.99,46.37-22.39,27.16-9.09,55.19-15.59,83.75-23.42V51.58c-46.08,4.34-88.13,15.53-124.06,42.75ZM15.81,79.21c7.18,.7,14.16,1.39,21.51,2.11v17.27c-7.64-1.13-14.29-2.12-21.51-3.19v-16.19Zm21.35,33.66v14.86c-19.74,2.88-22.66,.71-20.89-17.81,7.22,1.02,13.59,1.92,20.89,2.95Zm-21.55,28.14c7.54,.91,14.42,1.74,21.83,2.63v16.81c-7.44-.92-14.05-1.73-21.83-2.68v-16.76Zm21.58,81.23c-7.15-.68-13.83-1.32-21.48-2.05v-17.06c7.35,.86,13.98,1.63,21.48,2.51v16.6Zm-21.34-32.78v-17.24c7.49,.96,14.13,1.81,21.47,2.75h.01c.32,5.36,.59,9.85,.98,16.39-7.9-.67-14.94-1.26-22.46-1.9Zm122.25,29.88v-22.28c-11,7.42-22.01,14.84-33.05,22.28v-89.09c11.04,7.44,22.04,14.85,33.05,22.27v-22.27c22.06,14.87,43.98,29.64,66.1,44.54-22.1,14.89-44.02,29.67-66.1,44.55Zm96.08-75.44c7.08-1.08,13.71-2.09,21.26-3.24,2,18.73,1.42,19.2-20.79,18.75-.36-2.5-.93-5.13-1.05-7.77-.1-2.23,.31-4.48,.58-7.74Zm.42-14.01v-16.77c6.46-1,13.12-2.04,20.99-3.26v17.06c-7.15,1.01-13.5,1.91-20.99,2.97Zm-.07,45.6c3.75-.67,7.27-1.39,10.83-1.91,3.1-.45,6.23-.68,9.25-.99,3.91,17.52,2.44,18.84-20.08,17.95v-15.05Zm.25,46.02c-1.21-11.15,5.42-16.98,19.89-17.51,4.12,16.64,2.63,18.02-19.89,17.51Zm-.45-122.76c-.31-5.65-.57-10.38-.9-16.44,7.28-1.33,13.89-2.55,22.5-4.13,.32,6.59,.54,11.06,.83,17.05-7.26,1.14-13.91,2.18-22.43,3.52Z"/><path d="M147.93,80.64c29.13-32.99,67.4-47.8,109.94-56.85v17.09c-39.6,5.52-76.47,17.95-109.94,39.76Z"/><path d="M128.07,81.15C96.32,60.71,62.04,47.48,24.74,42.33c-12.82-1.77-6.59-10.42-7.91-18.59,43.62,9.01,81.93,24.33,111.25,57.41h0Z"/><path d="M125.63,61.96c-24.29-21.69-52.92-34.95-83.45-45.18-4.21-1.41-6.16-9.55-7.34-15.93,38.18,9.89,70.36,26.91,90.79,61.11Z"/><path d="M238.53,0c3.85,11.09,.3,15.72-9.98,18.88-28.58,8.77-55.04,21.92-77.43,43.33,7.44-23.95,49.88-54.02,87.41-62.21h0Z"/><path class="cls-1" d="M171.15,174.79c-11.05,7.44-22.05,14.86-33.05,22.27v-44.54c10.99,7.41,22,14.82,33.05,22.27Z"/><path d="M134.19,181.74c0-17.97,.02-35.95-.02-53.92,0-2.42,.72-4.38,2.91-5.53,2.13-1.12,4.13-.63,6.08,.68,26.66,17.99,53.34,35.96,80,53.94,3.82,2.57,3.86,6.93,.09,9.47-26.76,18.04-53.52,36.07-80.28,54.1-3.53,2.38-7.68,.95-8.62-2.94-.16-.65-.15-1.36-.15-2.04v-53.76h-.01Zm10.79,44.49c22.08-14.88,44-29.66,66.1-44.55-22.12-14.9-44.04-29.67-66.1-44.54v89.09Z"/></svg>